<svg xmlns="http://www.w3.org/2000/svg" width="1100" height="360" viewBox="0 0 1100 360" role="img" aria-labelledby="title desc">
  <title id="title">Naming and tags</title>
  <desc id="desc">Resource naming parts and standard Chriz Labz tags.</desc>
  <style>.bg{fill:#f8fafc}.part{fill:#eef2ff;stroke:#4f46e5;stroke-width:3}.tag{fill:#ecfdf5;stroke:#059669;stroke-width:3}.text{font:700 24px Arial,sans-serif;fill:#111827}.small{font:18px Arial,sans-serif;fill:#374151}</style>
  <rect class="bg" width="1100" height="360" rx="18"/>
  <text class="text" x="40" y="55">Resource Identity Pattern</text>
  <text class="text" x="260" y="132">clz-dev-clz220-web-lb</text>
  <g transform="translate(120 170)">
    <rect class="part" width="150" height="80" rx="12"/><text class="text" x="53" y="48">clz</text><text class="small" x="32" y="105">prefix</text>
    <rect class="part" x="180" width="150" height="80" rx="12"/><text class="text" x="228" y="48">dev</text><text class="small" x="204" y="105">environment</text>
    <rect class="part" x="360" width="150" height="80" rx="12"/><text class="text" x="400" y="48">clz220</text><text class="small" x="390" y="105">lesson</text>
    <rect class="part" x="540" width="150" height="80" rx="12"/><text class="text" x="592" y="48">web</text><text class="small" x="579" y="105">workload</text>
    <rect class="part" x="720" width="150" height="80" rx="12"/><text class="text" x="768" y="48">lb</text><text class="small" x="761" y="105">resource</text>
  </g>
  <g transform="translate(775 38)">
    <rect class="tag" width="270" height="108" rx="12"/>
    <text class="small" x="22" y="34">Project = Chriz Labz</text>
    <text class="small" x="22" y="62">ManagedBy = Terraform</text>
    <text class="small" x="22" y="90">Lab = CLZ-220</text>
  </g>
</svg>

